<svg xmlns="http://www.w3.org/2000/svg" xmlns:xlink="http://www.w3.org/1999/xlink" version="1.1" x="0px" y="0px" viewBox="0 0 80 100" enable-background="new 0 0 80 80" xml:space="preserve"><path d="M51,20.333v-2c0-2.757-2.243-5-5-5H34c-2.757,0-5,2.243-5,5v2c0,2.757,2.243,5,5,5h12C48.757,25.333,51,23.09,51,20.333z   M33,20.333v-2c0-0.552,0.448-1,1-1h12c0.552,0,1,0.448,1,1v2c0,0.552-0.448,1-1,1H34C33.448,21.333,33,20.885,33,20.333z"/><path d="M8,35.667h1c1.104,0,2-0.896,2-2s-0.896-2-2-2H8c-0.552,0-1-0.448-1-1v-2c0-0.552,0.448-1,1-1h12c0.552,0,1,0.448,1,1v2  c0,0.552-0.448,1-1,1h-5c-1.104,0-2,0.896-2,2s0.896,2,2,2h5c2.757,0,5-2.243,5-5v-2c0-2.757-2.243-5-5-5h-4v-2.334h9  c1.104,0,2-0.896,2-2s-0.896-2-2-2h-9V15h4c2.757,0,5-2.243,5-5V8c0-2.757-2.243-5-5-5H8C5.243,3,3,5.243,3,8v2c0,2.757,2.243,5,5,5  h4v8.667H8c-2.757,0-5,2.243-5,5v2C3,33.424,5.243,35.667,8,35.667z M8,11c-0.552,0-1-0.448-1-1V8c0-0.552,0.448-1,1-1h12  c0.552,0,1,0.448,1,1v2c0,0.552-0.448,1-1,1H8z"/><path d="M20,65h-4v-8.667h4c2.757,0,5-2.243,5-5v-2c0-2.757-2.243-5-5-5H8c-2.757,0-5,2.243-5,5v2c0,2.757,2.243,5,5,5h4V65H8  c-2.757,0-5,2.243-5,5v2c0,2.757,2.243,5,5,5h12c2.757,0,5-2.243,5-5v-2C25,67.243,22.757,65,20,65z M8,52.333c-0.552,0-1-0.448-1-1  v-2c0-0.552,0.448-1,1-1h12c0.552,0,1,0.448,1,1v2c0,0.552-0.448,1-1,1H8z M21,72c0,0.552-0.448,1-1,1H8c-0.552,0-1-0.448-1-1v-2  c0-0.552,0.448-1,1-1h12c0.552,0,1,0.448,1,1V72z"/><path d="M72,34h-1c-1.104,0-2,0.896-2,2s0.896,2,2,2h1c0.552,0,1,0.448,1,1v2c0,0.552-0.448,1-1,1H60c-0.552,0-1-0.448-1-1v-2  c0-0.552,0.448-1,1-1h5c1.104,0,2-0.896,2-2s-0.896-2-2-2h-5c-2.757,0-5,2.243-5,5v2c0,2.757,2.243,5,5,5h12c2.757,0,5-2.243,5-5v-2  C77,36.243,74.757,34,72,34z"/><path d="M51,37.986h-9v-2.987c0-1.104-0.896-2-2-2s-2,0.896-2,2v19.668h-4c-2.414,0-4.434,1.721-4.899,4H20c-1.104,0-2,0.896-2,2  s0.896,2,2,2h9.101c0.465,2.279,2.484,4,4.899,4h12c2.757,0,5-2.243,5-5v-2c0-2.757-2.243-5-5-5h-4V41.986h9c1.104,0,2-0.896,2-2  S52.104,37.986,51,37.986z M46,58.667c0.552,0,1,0.448,1,1v2c0,0.552-0.448,1-1,1H34c-0.552,0-1-0.448-1-1v-2c0-0.552,0.448-1,1-1  H46z"/><circle cx="40" cy="29" r="2"/></svg>