<svg xmlns="http://www.w3.org/2000/svg" width="64" height="64" viewBox="0 0 16.933 16.933"><g transform="translate(0 -280.067)"><path fill="#000000" d="M 19.558594 16.171875 L 19.558594 28.369141 L 28.220703 28.369141 C 30.314561 28.369141 32 30.054579 32 32.148438 L 32 45.980469 C 32 48.074327 30.314561 49.759766 28.220703 49.759766 L 19.558594 49.759766 L 19.558594 56.287109 C 19.558594 59.427897 22.085775 61.957031 25.226562 61.957031 L 38.773438 61.957031 C 41.914225 61.957031 44.441406 59.427897 44.441406 56.287109 L 44.441406 16.171875 L 19.558594 16.171875 z " transform="matrix(.26458 0 0 .26458 0 280.067)"/><path fill="none" stroke="#000000" stroke-linecap="round" stroke-linejoin="round" stroke-width=".529" d="M5.17488 285.46815v9.49129c0 .831.66865 1.50017 1.49965 1.50017h3.58428c.831 0 1.49965-.66917 1.49965-1.50017v-9.49129M4.48951 280.58463h7.95431c.554 0 1 .446 1 1v1.761c0 .554-.446 1-1 1H4.48951c-.554 0-1-.446-1-1v-1.761c0-.554.446-1 1-1z"/><path fill="none" stroke="#000000" stroke-linecap="round" stroke-linejoin="round" stroke-width=".529" d="m 5.17488,293.23242 h 2.29185 c 0.554,0 0.99994,-0.44594 0.99994,-0.99994 v -3.65972 c 0,-0.554 -0.44594,-0.99994 -0.99994,-0.99994 H 5.17488"/></g></svg>