<svg xmlns="http://www.w3.org/2000/svg" enable-background="new 0 0 98 98" viewBox="0 0 98 98"><polygon points="4.592 35.509 6.592 35.509 6.592 33.246 8.855 33.246 8.855 31.246 6.592 31.246 6.592 28.983 4.592 28.983 4.592 31.246 2.33 31.246 2.33 33.246 4.592 33.246"/><polygon points="8.591 77.673 10.854 77.673 10.854 75.673 8.591 75.673 8.591 73.41 6.591 73.41 6.591 75.673 4.328 75.673 4.328 77.673 6.591 77.673 6.591 79.936 8.591 79.936"/><polygon points="32.155 96 32.155 94.3 33.855 94.3 33.855 92.3 32.155 92.3 32.155 90.6 30.155 90.6 30.155 92.3 28.456 92.3 28.456 94.3 30.155 94.3 30.155 96"/><polygon points="95.67 39.357 93.971 39.357 93.971 37.658 91.971 37.658 91.971 39.357 90.27 39.357 90.27 41.357 91.971 41.357 91.971 43.058 93.971 43.058 93.971 41.357 95.67 41.357"/><polygon points="66.224 8.526 66.224 6.263 68.487 6.263 68.487 4.263 66.224 4.263 66.224 2 64.224 2 64.224 4.263 61.961 4.263 61.961 6.263 64.224 6.263 64.224 8.526"/><rect width="2" height="2" x="93.371" y="75.441"/><rect width="2" height="2" x="85.371" y="75.441"/><rect width="2" height="2" x="89.371" y="75.441"/><rect width="2" height="2" x="55.735" y="93.634"/><rect width="2" height="2" x="59.735" y="93.634"/><rect width="2" height="2" x="51.735" y="93.634"/><rect width="2" height="2" x="16.184" y="86.771"/><rect width="2" height="2" x="8.184" y="86.771"/><rect width="2" height="2" x="12.184" y="86.771"/><rect width="2" height="2" x="92.076" y="19.005"/><rect width="2" height="2" x="84.076" y="19.005"/><rect width="2" height="2" x="88.076" y="19.005"/><rect width="2" height="2" x="39.782" y="4.891"/><rect width="2" height="2" x="35.782" y="4.891"/><rect width="2" height="2" x="31.782" y="4.891"/><path d="M67.3965 88.3291c-.5591.334-1.126.6563-1.7002.9658l.9492 1.7607c.5996-.3232 1.1919-.6602 1.7764-1.0088L67.3965 88.3291zM70.665 86.1806c-.5283.3813-1.0649.7515-1.6104 1.1094l1.0977 1.6719c.5698-.3745 1.1309-.7612 1.6826-1.1592L70.665 86.1806zM79.2056 78.1679c-.4146.5039-.8398.9985-1.2759 1.4839l1.4883 1.3359c.4546-.5068.8984-1.0229 1.3315-1.5483L79.2056 78.1679zM75.1929 82.4492l1.3691 1.458c.4961-.4658.9829-.9419 1.459-1.4287L76.5913 81.08C76.1348 81.5463 75.6685 82.0029 75.1929 82.4492zM73.7378 83.7568c-.4941.4253-.998.8398-1.5103 1.2441l1.2393 1.5703c.5347-.4219 1.0601-.855 1.5757-1.2988L73.7378 83.7568zM26.0898 16.4272L25 14.7504c-.5718.3716-1.1348.7554-1.689 1.1514l1.1631 1.627C25.0039 17.1504 25.5425 16.7832 26.0898 16.4272zM27.7524 15.3974c.5605-.3301 1.1289-.6489 1.7056-.9551l-.9385-1.7666c-.6021.3198-1.1968.6533-1.7827.999L27.7524 15.3974zM20.0933 18.4199l1.2998 1.5195c.4956-.4238 1.0005-.8369 1.5142-1.2393l-1.2334-1.5742C21.1377 17.5459 20.6104 17.9775 20.0933 18.4199zM19.9351 21.2426l-1.3662-1.4609c-.4971.4648-.9849.9409-1.4614 1.4272l1.4277 1.4004C18.9922 22.1435 19.4585 21.6879 19.9351 21.2426zM54.7922 14.3946c-.2755-.0424-.5511-.0843-.8279-.1205-.5904-.0772-1.1834-.137-1.7777-.186-.2245-.0184-.4479-.0439-.6728-.0583-.819-.0526-1.6395-.0826-2.4584-.0811-.0562.0001-.1124.0036-.1686.004-.739.0048-1.4756.0369-2.2093.0862-.1027.0068-.2051.0144-.3076.0221-.0718.3456-.1089.7003-.1089 1.0607 0 2.9471 2.3973 5.3444 5.3444 5.3444 2.9471 0 5.3449-2.3973 5.3449-5.3444 0-.1134-.0037-.2236-.01-.3309-.1688-.0364-.338-.0703-.5073-.1043C55.8893 14.5772 55.3425 14.4792 54.7922 14.3946zM65.3647 65.7666c-.6479 0-2.0347 2.9492-2.0347 4.6978 0 1.1221.9126 2.0347 2.0347 2.0347 1.1216 0 2.0342-.9126 2.0342-2.0347C67.3989 68.7158 66.0122 65.7666 65.3647 65.7666z"/><circle cx="57.421" cy="34.559" r="2.034"/><circle cx="71.976" cy="43.392" r="2.034"/><path d="M49.3563,82.5145c-1.6547,0-3.6498,0.9708-5.2072,2.5334c-0.7142,0.7142-1.2946,1.4921-1.7194,2.2934
		c0.2854,0.0519,0.569,0.1094,0.8563,0.1547c0.2874,0.0454,0.5742,0.0921,0.8632,0.1309c0.6222,0.0833,1.2474,0.147,1.874,0.199
		c0.2123,0.0177,0.4237,0.0435,0.6365,0.0576c0.8462,0.0558,1.6939,0.086,2.5393,0.0841c0.117-0.0003,0.2332-0.0095,0.3502-0.0109
		c0.611-0.0073,1.219-0.0367,1.8253-0.0747c0.9175-1.8815,0.924-3.7047-0.0224-4.651
		C50.7571,82.6391,49.9386,82.5145,49.3563,82.5145z"/><path d="M59.0858,15.3074c-0.0999,4.0433-3.4131,7.3035-7.4804,7.3035c-4.1296,0-7.4893-3.3597-7.4893-7.4893
		c0-0.2833,0.0386-0.5603,0.0703-0.8384c-18.3889,2.4273-32.0772,17.9402-32.0772,36.6753c0,16.9434,11.7914,31.9086,28.1609,35.938
		c0.5406-1.1906,1.3367-2.3398,2.3608-3.364c1.9736-1.9799,4.4882-3.1628,6.7253-3.1628c1.4139,0,2.6277,0.4645,3.5106,1.3427
		c1.4009,1.4009,1.6882,3.6231,0.8928,5.9637c18.2954-2.2964,32.3718-18.0838,32.3718-36.7175
		C86.1315,34.1978,75.0836,19.7459,59.0858,15.3074z M23.8877,45.0937c-0.9517-0.9517-1.2925-2.3574-0.959-3.958
		c0.3013-1.4482,1.1353-2.9136,2.3477-4.1255c1.5464-1.5469,3.5186-2.4707,5.2744-2.4707c1.1304,0,2.1016,0.374,2.8091,1.0815
		c1.8774,1.877,1.2671,5.4282-1.3887,8.084c-1.5469,1.5469-3.5186,2.4702-5.2744,2.4702
		C25.5664,46.1753,24.5947,45.8012,23.8877,45.0937z M34.5356,67.3046c-2.2246,0-4.0342-1.8101-4.0342-4.0347
		s1.8096-4.0342,4.0342-4.0342s4.0347,1.8096,4.0347,4.0342S36.7603,67.3046,34.5356,67.3046z M49.1206,56.2368
		c-2.5244,0-4.5786-2.3677-4.5786-5.2783s2.0542-5.2788,4.5786-5.2788s4.5786,2.3682,4.5786,5.2788S51.645,56.2368,49.1206,56.2368z
		 M57.4214,38.5937c-2.2246,0-4.0347-1.8101-4.0347-4.0347s1.8101-4.0342,4.0347-4.0342s4.0342,1.8096,4.0342,4.0342
		S59.646,38.5937,57.4214,38.5937z M65.3647,74.499c-2.2246,0-4.0347-1.8101-4.0347-4.0347c0-1.7212,1.3872-6.6978,4.0347-6.6978
		c2.647,0,4.0342,4.9766,4.0342,6.6978C69.3989,72.6889,67.5894,74.499,65.3647,74.499z M71.9756,47.4262
		c-2.2246,0-4.0347-1.8096-4.0347-4.0342s1.8101-4.0347,4.0347-4.0347s4.0347,1.8101,4.0347,4.0347S74.2002,47.4262,71.9756,47.4262
		z"/><path d="M49.1206,47.6796c-1.4219,0-2.5786,1.4707-2.5786,3.2788c0,1.8076,1.1567,3.2783,2.5786,3.2783
		s2.5786-1.4707,2.5786-3.2783C51.6992,49.1504,50.5425,47.6796,49.1206,47.6796z"/><circle cx="34.536" cy="63.27" r="2.034"/><path d="M31.9458,37.0351c-0.4097-0.4097-0.9849-0.4956-1.395-0.4956c-1.2188,0-2.6978,0.7222-3.8604,1.8848
		c-0.9268,0.9268-1.584,2.0635-1.8037,3.1191c-0.1108,0.5317-0.2041,1.5166,0.415,2.1362c0.4097,0.4097,0.9849,0.4956,1.395,0.4956
		c1.2188,0,2.6978-0.7222,3.8604-1.8843C32.3579,40.4902,32.9937,38.0835,31.9458,37.0351z"/></svg>