<svg xmlns="http://www.w3.org/2000/svg" xmlns:xlink="http://www.w3.org/1999/xlink" version="1.1" x="0px" y="0px" viewBox="0 0 100 125" enable-background="new 0 0 100 100" xml:space="preserve"><g><path fill-rule="evenodd" clip-rule="evenodd" d="M86.841,56.923c2.446,5.675,2.611,11.731,1.416,17.893   c-0.073,0.375-0.423,0.696-0.645,1.042c-0.244-0.377-0.565-0.727-0.709-1.139c-0.162-0.463-0.159-0.983-0.234-1.477   c-0.065-0.43-0.138-0.858-0.277-1.72c-0.521,1.325-1.137,2.257-1.232,3.239c-0.579,5.936-3.845,10.064-8.931,12.627   c-3.171,1.598-6.709,2.477-10.112,3.591c-0.457,0.149-1.083-0.221-1.632-0.35c0.216-0.45,0.338-0.987,0.663-1.335   c2.13-2.285,3.704-4.898,4.847-7.725c-3.138,1.498-6.2,3.134-9.399,4.434c-2.997,1.218-6.126,2.124-9.228,3.066   c-0.714,0.216-1.598,0.184-2.328-0.014c-5.996-1.62-11.825-3.672-17.426-7.071c1.132,2.896,2.687,5.197,4.594,7.292   c0.326,0.358,0.467,0.886,0.693,1.335c-0.545,0.136-1.131,0.476-1.63,0.377c-4.951-0.976-9.638-2.58-13.579-5.909   c-3.208-2.709-5.096-6.089-5.437-10.3c-0.024-0.297-0.088-0.591-0.152-0.883c-0.02-0.09-0.101-0.167-0.219-0.353   c-0.088,0.344-0.106,0.633-0.235,0.86c-0.178,0.314-0.439,0.582-0.665,0.869c-0.225-0.289-0.616-0.56-0.649-0.87   c-0.408-3.76-1.038-7.526-1.044-11.291c-0.005-2.999,0.768-6,1.215-9.141c-1.2,0.787-2.457,1.612-3.714,2.436   c-1.149,0.753-1.664,0.54-1.94-0.827c-0.859-4.264-1.019-8.506,0.626-12.96c-0.704,0.476-1.116,0.836-1.593,1.051   c-0.443,0.199-0.957,0.242-1.439,0.353c-0.042-0.511-0.288-1.124-0.091-1.517c0.996-1.997,1.86-4.136,3.244-5.841   c1.411-1.738,3.373-3.029,5.261-4.662c-1.356-3.193-1.207-6.491,2.181-8.925c2.555-1.835,5.622-1.503,8.71,0.755   c1.607-2.587,3.38-5.038,6.244-6.389c3.058-1.442,5.934-0.783,8.921,0.924c-0.29-1.175-0.584-2.139-0.761-3.125   c-0.702-3.935,2.032-8.016,5.917-8.828c0.384-0.08,0.821,0.091,1.233,0.145c-0.119,0.354-0.246,0.705-0.355,1.061   c-0.598,1.941-1.462,3.848-1.725,5.833c-0.418,3.16,1.146,5.372,4.309,6.715c1.845-5.103,5.271-8.038,10.953-7.395   c1.875,0.212,4.058,0.113,5.188,2.486c-3.848,1.072-7.884,1.426-10.752,4.568c7.156-2.07,14.006-2.588,19.446,3.279   c1.703-0.426,3.214-1.097,4.739-1.132c4.411-0.1,7.36,3.736,6.455,8.257c-0.176,0.879-0.046,1.277,0.693,1.799   c4.527,3.192,6.823,7.707,7.46,13.117c0.073,0.619-0.265,1.287-0.413,1.932c-0.544-0.234-1.088-0.468-1.432-0.616   c-0.579,2.122-1.131,4.373-1.825,6.58c-0.286,0.91-0.905,1.613-1.791,0.432C87.778,54.636,87.335,55.716,86.841,56.923z    M26.338,58.184c-0.056,0.294-0.115,0.434-0.103,0.566c0.627,6.424,1.629,12.778,3.674,18.924c0.157,0.471,0.581,0.918,0.991,1.23   c4.11,3.125,8.896,4.855,13.635,6.744c3.888,1.549,7.521,1.545,11.406-0.004c4.692-1.872,9.401-3.624,13.535-6.628   c1.627-1.183,2.65-2.63,2.972-4.629c0.77-4.777,1.631-9.54,2.365-14.322c0.176-1.144,0.321-2.466-0.074-3.492   c-1.145-2.976-2.551-5.854-3.899-8.749c-0.422-0.907-0.987-1.747-1.487-2.618c-0.182,0.51-0.085,0.894-0.045,1.284   c0.353,3.417,0.731,6.831,1.011,10.253c0.053,0.653-0.083,1.549-0.499,1.97c-1.238,1.255-0.512,2.051,0.364,2.977   c0.349-0.256,0.604-0.563,0.917-0.641c0.363-0.09,0.777,0.021,1.168,0.046c-0.071,0.351-0.032,0.918-0.23,1.02   c-1.492,0.761-1.119,1.82-0.681,3.012c0.122,0.333-0.219,0.835-0.347,1.26c-0.348-0.269-0.83-0.465-1.021-0.818   c-0.876-1.612-1.481-3.403-2.537-4.878c-1.71-2.391-4.18-3.122-7.038-2.334c-0.621,0.171-1.195,0.525-1.82,0.665   c-0.414,0.092-0.879-0.049-1.322-0.086c0.229-0.417,0.353-1.04,0.704-1.22c3.008-1.539,6.01-1.717,8.921,0.291   c0.312,0.215,0.628,0.426,0.942,0.638c0.126-0.088,0.252-0.176,0.378-0.264c-2.634-5.62-5.02-11.375-9.231-16.614   c0,2.521-0.219,4.597,0.064,6.603c0.266,1.884,1.064,3.692,1.623,5.536c0.143,0.469,0.264,0.944,0.395,1.417   c-0.554,0.012-1.181,0.202-1.649,0.008c-4.708-1.943-7.578-5.379-8.307-10.49c-0.084-0.59-0.16-1.182-0.266-1.966   c-0.249,0.314-0.323,0.38-0.364,0.464c-2.292,4.664-3.789,9.455-2.464,14.735c0.099,0.393-0.208,0.887-0.325,1.333   c-0.431-0.159-0.973-0.205-1.271-0.498c-0.78-0.769-1.487-1.619-2.165-2.482c-2.523-3.211-4.056-6.86-4.691-10.921   c-1.336,3.667-2.758,7.264-3.028,11.287c2.339-0.509,4.39-0.19,6.309,0.786c0.437,0.222,0.682,0.82,1.016,1.245   c-0.561,0.03-1.206,0.256-1.67,0.058c-4.044-1.718-7.381-0.679-9.555,3.156c-0.634,1.12-0.99,2.394-1.57,3.549   c-0.175,0.349-0.676,0.534-1.028,0.794c-0.12-0.428-0.371-0.869-0.33-1.281c0.059-0.583,0.661-1.439,0.46-1.661   c-0.891-0.981-1.341-2.076-1.751-3.315C28.175,59.388,27.157,58.909,26.338,58.184z M77.277,58.304   c0.175,0.005,0.35,0.011,0.524,0.017c0-3.261-0.03-6.523,0.032-9.783c0.009-0.497,0.446-0.985,0.685-1.478   c0.355,0.373,0.87,0.686,1.037,1.129c0.535,1.425,0.942,2.897,1.399,4.352c0.231-8.166-1.958-15.551-7.368-21.721   c-3.806-4.341-8.722-6.021-14.339-4.304c-2.679,0.818-5.196,2.249-7.669,3.615c-1.043,0.577-1.63,0.789-2.55-0.146   c-1.791-1.818-3.993-3.025-6.535-3.408c-5.927-0.892-11.227,0.645-15.722,4.57c-5.63,4.917-6.889,11.444-6.406,18.521   c0.063,0.922,0.22,1.837,0.387,3.179c0.643-1.281,1.045-2.176,1.541-3.017c0.176-0.297,0.611-0.667,0.873-0.628   c0.293,0.043,0.593,0.476,0.761,0.805c0.15,0.295,0.109,0.684,0.183,1.024c0.651,3,2.497,5.215,4.794,7.475   c0-0.527,0.028-0.764-0.004-0.992c-0.958-6.768,0.75-13.081,3.324-19.233c0.219-0.522,0.778-0.903,1.179-1.351   c0.121,0.658,0.376,1.323,0.339,1.972c-0.146,2.534-0.564,5.064-0.537,7.592c0.03,2.718,0.699,5.367,1.837,7.842   c1.286-3.879,2.535-7.712,3.833-11.528c0.417-1.226,0.923-2.425,1.475-3.596c0.151-0.321,0.612-0.496,0.931-0.738   c0.157,0.39,0.438,0.779,0.44,1.17c0.003,0.536-0.232,1.068-0.32,1.609c-0.91,5.596,0.964,10.338,4.584,14.94   c0.041-0.535,0.071-0.71,0.064-0.885c-0.223-5.61,1.748-10.575,4.559-15.271c0.331-0.553,1.026-0.888,1.553-1.323   c0.139,0.691,0.361,1.378,0.399,2.075c0.076,1.39-0.106,2.81,0.098,4.175c0.536,3.583,2.401,6.301,5.756,8.218   c-0.067-0.433-0.072-0.631-0.129-0.813c-1.159-3.705-0.954-7.505-0.762-11.298c0.022-0.43,0.313-1.059,0.647-1.199   c0.324-0.136,0.959,0.126,1.286,0.411c0.672,0.586,1.357,1.227,1.812,1.981c1.875,3.118,3.688,6.273,5.476,9.442   c0.692,1.227,1.256,2.527,1.878,3.793c0.268-0.555,0.336-1.044,0.257-1.509c-0.637-3.733-1.324-7.458-1.932-11.195   c-0.09-0.556,0.156-1.166,0.247-1.751c0.506,0.239,1.203,0.342,1.486,0.74c1.21,1.703,2.468,3.408,3.396,5.268   C73.917,50.75,75.554,54.548,77.277,58.304z M50.677,22.289c-2.485-0.596-4.55-1.846-5.719-3.525   c-2.1-3.015-1.468-6.248-0.533-9.745c-1.561,1.111-2.676,2.313-2.604,3.924c0.08,1.795,0.419,3.664,1.082,5.327   c0.687,1.725,1.895,3.243,2.928,4.939c-0.339,0.267-0.71,0.558-0.85,0.668c-1.898-1.442-3.554-2.873-5.377-4.042   c-2.263-1.452-4.721-1.884-7.229-0.483c-2.359,1.318-3.852,3.394-5.092,5.728c0.997,0.663,1.899,1.263,2.848,1.894   c7.056-2.886,13.965-3.578,20.23,2.084c0.669-0.434,1.279-0.868,1.924-1.241c5.614-3.246,11.4-4.81,17.661-1.797   c0.3,0.145,0.773,0.125,1.092-0.002c0.768-0.306,1.493-0.72,2.241-1.094c-1.411-1.975-3.391-3.375-5.812-4.056   c-4.396-1.237-8.601-0.363-12.729,1.22c-0.256,0.098-0.466,0.33-0.683,0.517c-0.423,0.366-0.835,0.744-1.252,1.117   c-0.145-0.162-0.29-0.323-0.435-0.484c-0.327-5.829,4.413-6.895,8.504-8.604C56.634,13.024,52.963,15.804,50.677,22.289z    M10.162,54.701c2.979-1.556,5.783-3.02,8.713-4.55c-0.417-4.208,0.153-8.524,1.337-12.784c0.104-0.374-0.054-1.063-0.333-1.257   c-1.212-0.843-2.51-1.566-3.792-2.304c-0.136-0.079-0.392-0.013-0.568,0.051c-2.287,0.835-6.298,4.31-6.835,7.372   c0.668-0.202,1.313-0.492,1.984-0.578c0.999-0.127,1.423,0.506,0.908,1.363C9.166,46.019,9.561,50.3,10.162,54.701z M78.706,68.641   c1.17-0.036,1.483,0.323,1.092,1.776c-0.957,3.551-1.977,7.084-3.047,10.896c1.552-1.458,3.03-2.705,4.338-4.11   c2.202-2.365,3.868-5.044,4.342-8.339c0.068-0.472,0.427-0.903,0.651-1.353c0.437,0.269,0.873,0.538,1.313,0.809   c0.389-5.625-1.37-10.711-4.704-15.48c-0.236,1.599-0.398,3.078-0.703,4.527c-0.089,0.426-0.579,0.768-0.886,1.148   c-0.283-0.404-0.653-0.775-0.828-1.222c-0.195-0.501-0.197-1.075-0.314-1.611c-0.101-0.462-0.247-0.914-0.375-1.383   C79.29,59.132,78.997,63.896,78.706,68.641z M25.306,63.913c-0.636-3.886-0.035-8.06-2.687-11.656   c-0.287,1.082-0.811,2.12-0.792,3.147c0.091,5.084,0.079,10.191,0.584,15.242c0.456,4.563,2.058,8.834,5.158,12.404   c0.385,0.443,0.506,1.115,0.75,1.681c-0.636-0.095-1.288-0.13-1.901-0.304c-0.418-0.119-0.807-0.397-1.167-0.661   c-2.072-1.515-4.132-3.046-6.09-4.494c1.031,3.998,8.061,8.756,14.583,9.822c-1.166-2.12-2.534-4.262-3.569-6.555 M86.06,54.042   c0.195-0.042,0.39-0.083,0.584-0.124c0.286-2.323,0.536-4.651,0.888-6.964c0.075-0.487,0.525-0.917,0.803-1.373   c0.326,0.424,0.78,0.805,0.948,1.285c0.24,0.687,0.27,1.446,0.389,2.175c0.224-1.302,0.193-2.593,0.237-3.881   c0.022-0.66,0.18-1.316,0.277-1.973c0.565,0.099,1.13,0.198,1.816,0.318c-1.125-4.575-3.333-8.291-7.148-10.599   c-1.503,0.857-2.816,1.466-3.954,2.311c-0.652,0.484-1.833,0.951-1.321,2.145c1.527,3.564,2.184,7.336,3.055,11.082   C83.103,50.466,84.875,52.186,86.06,54.042z M15.044,70.402c0.673-0.341,1.171-0.592,1.668-0.843   c0.202,0.574,0.535,1.138,0.584,1.725c0.385,4.557,3.333,7.305,6.733,9.762c-0.273-0.914-0.7-1.742-1.046-2.603   c-2.587-6.434-2.925-13.175-2.868-20.004c0.017-2.035-0.581-4.075-0.968-6.564c-1.15,0.9-2.349,1.357-2.66,2.159   C14.438,59.32,14.327,64.815,15.044,70.402z M76.453,61.121c-1.478,9.938-2.977,19.697-9.052,28.015   c7.534-1.271,15.343-7.102,15.356-11.153c-2.202,1.821-4.515,3.786-6.899,5.661c-0.478,0.376-1.227,0.407-1.851,0.597   c0.092-0.616,0.084-1.269,0.293-1.842c1.255-3.439,2.559-6.859,3.948-10.557c-1.883,0.457-1.999-0.249-1.799-1.347   c0.541-2.983,1.034-5.976,1.556-9.022C77.331,61.32,76.908,61.224,76.453,61.121z M28.308,27.607   c-1.342-1.208-3.122-1.547-5.048-0.856c-2.14,0.768-3.308,2.377-3.421,4.643c-0.071,1.423,0.117,2.815,1.463,3.36   C23.688,32.319,25.974,29.988,28.308,27.607z M75.534,24.847c4.523,1.014,6.348,3.87,5.979,8.306   c2.836-1.605,3.551-4.933,1.77-7.56C81.601,23.112,78.189,22.722,75.534,24.847z M18.323,32.958   c0.004-4.857,1.446-6.848,5.864-8.097c-1.334-1.415-3.421-1.838-5.272-1.068c-2.075,0.863-3.31,2.683-3.305,4.869   C15.615,30.679,16.658,32.331,18.323,32.958z M78.744,35.03c2.043-2.019,1.556-5.213-0.1-6.997   c-1.701-1.833-4.562-2.13-6.223-0.853C74.531,29.8,76.644,32.423,78.744,35.03z M31.382,45.124c-1.2,4.472-1.69,8.827-0.836,13.277   c0.2,1.041,0.328,2.096,0.484,3.12c0.863-0.786,1.324-1.697,0.358-2.847c-0.126-0.15-0.268-0.34-0.282-0.52   c-0.036-0.48-0.005-0.965-0.001-1.449c0.421,0.215,0.92,0.35,1.241,0.666c0.361,0.355,0.562,0.874,0.862,1.371   c0.595-0.473,1.053-0.837,1.422-1.13c-0.73-2.088-1.549-4.021-2.07-6.031C32.026,49.519,31.781,47.383,31.382,45.124z"/><path fill-rule="evenodd" clip-rule="evenodd" d="M41.707,71.013c0.577-0.147,0.861-0.288,1.134-0.27   c0.247,0.016,0.483,0.206,0.724,0.318c-0.149,0.225-0.251,0.588-0.453,0.655c-3.034,1.019-6.085,0.952-9.122,0.012   c-0.212-0.065-0.334-0.42-0.498-0.64c0.285-0.112,0.589-0.353,0.851-0.313c0.826,0.124,1.636,0.352,2.782,0.615   c-1.776-2.605-2.261-5.162-1.63-7.909c0.587-2.555,2.13-4.25,3.832-4.222c1.655,0.028,3.157,1.69,3.733,4.159   C43.667,66.021,43.3,68.475,41.707,71.013z M41.822,63.066c0.037-1.181-0.912-2.22-2.097-2.298   c-1.235-0.082-2.339,0.924-2.377,2.167c-0.037,1.181,0.911,2.22,2.097,2.298C40.68,65.314,41.783,64.309,41.822,63.066z"/><path fill-rule="evenodd" clip-rule="evenodd" d="M59.14,70.663c-1.388-2.194-1.759-4.7-1.098-7.344   c0.168-0.67,0.422-1.342,0.761-1.943c1.585-2.807,4.413-2.849,5.942-0.02c1.556,2.88,1.482,5.844-0.019,8.759   c-0.177,0.344-0.394,0.667-0.744,1.254c1.066-0.239,1.876-0.459,2.7-0.583c0.273-0.041,0.583,0.167,0.877,0.261   c-0.19,0.248-0.334,0.647-0.576,0.719c-2.94,0.881-5.9,0.951-8.844,0.021c-0.262-0.083-0.435-0.449-0.649-0.683   C57.993,70.97,58.495,70.836,59.14,70.663z M62.036,60.761c-1.177,0.027-2.177,1.037-2.192,2.213   c-0.015,1.235,1.054,2.292,2.289,2.265c1.177-0.027,2.178-1.037,2.192-2.213C64.339,61.791,63.271,60.733,62.036,60.761z"/><path fill-rule="evenodd" clip-rule="evenodd" d="M50.775,70.836c-0.292-0.558-0.565-1.08-0.839-1.603   c0.164-0.109,0.327-0.218,0.491-0.326c0.597,0.541,1.195,1.083,1.904,1.725c-0.636,0.823-1.224,1.584-1.817,2.353   C49.825,72.367,49.825,72.367,50.775,70.836z"/></g></svg>